<?xml version="1.0" encoding="UTF-8"?>
<svg xmlns="http://www.w3.org/2000/svg" xmlns:xlink="http://www.w3.org/1999/xlink" width="24px" height="17px" viewBox="0 0 24 17" version="1.1">
<g id="surface1">
<path style=" stroke:none;fill-rule:nonzero;fill:rgb(0%,0%,0%);fill-opacity:1;" d="M 5.699219 7.535156 C 5.652344 7.554688 5.550781 7.628906 5.476562 7.695312 L 5.339844 7.816406 L 5.339844 7.6875 C 5.339844 7.609375 5.304688 7.554688 5.25 7.554688 C 5.171875 7.554688 5.160156 7.695312 5.160156 8.476562 C 5.160156 9.253906 5.171875 9.398438 5.25 9.398438 C 5.320312 9.398438 5.339844 9.285156 5.339844 8.792969 C 5.339844 8.347656 5.363281 8.144531 5.449219 7.992188 C 5.621094 7.632812 6.089844 7.574219 6.226562 7.890625 C 6.269531 7.984375 6.300781 8.339844 6.300781 8.722656 C 6.300781 9.28125 6.316406 9.398438 6.390625 9.398438 C 6.460938 9.398438 6.480469 9.28125 6.480469 8.714844 C 6.480469 8.046875 6.480469 8.035156 6.652344 7.855469 C 6.859375 7.644531 7.128906 7.617188 7.277344 7.789062 C 7.363281 7.878906 7.378906 8.039062 7.378906 8.648438 C 7.378906 9.273438 7.390625 9.398438 7.46875 9.398438 C 7.535156 9.398438 7.558594 9.324219 7.558594 9.101562 C 7.558594 8.707031 7.613281 8.664062 7.746094 8.960938 C 7.992188 9.527344 8.875 9.570312 9.148438 9.035156 C 9.570312 8.199219 8.980469 7.285156 8.195312 7.554688 C 7.957031 7.632812 7.679688 7.933594 7.679688 8.113281 C 7.679688 8.179688 7.65625 8.21875 7.621094 8.199219 C 7.589844 8.179688 7.558594 8.082031 7.558594 7.992188 C 7.558594 7.554688 7.050781 7.359375 6.652344 7.632812 C 6.4375 7.789062 6.433594 7.789062 6.316406 7.671875 C 6.199219 7.546875 5.855469 7.46875 5.699219 7.535156 Z M 8.753906 7.769531 C 8.980469 7.886719 9.078125 8.15625 9.046875 8.574219 C 9.011719 9.023438 8.8125 9.242188 8.453125 9.242188 C 8.25 9.242188 8.179688 9.207031 8.035156 9.039062 C 7.882812 8.875 7.859375 8.789062 7.859375 8.5 C 7.859375 7.835938 8.269531 7.503906 8.753906 7.769531 Z M 8.753906 7.769531 "/>
<path style=" stroke:none;fill-rule:nonzero;fill:rgb(0%,0%,0%);fill-opacity:1;" d="M 9.792969 7.609375 C 9.558594 7.761719 9.539062 7.761719 9.539062 7.644531 C 9.539062 7.597656 9.496094 7.554688 9.449219 7.554688 C 9.371094 7.554688 9.359375 7.695312 9.359375 8.476562 C 9.359375 9.253906 9.371094 9.398438 9.449219 9.398438 C 9.523438 9.398438 9.539062 9.285156 9.539062 8.78125 C 9.539062 8.339844 9.570312 8.105469 9.628906 7.976562 C 9.785156 7.671875 10.222656 7.578125 10.441406 7.800781 C 10.546875 7.910156 10.558594 8.003906 10.558594 8.660156 C 10.558594 9.273438 10.578125 9.398438 10.648438 9.398438 C 10.726562 9.398438 10.738281 9.269531 10.738281 8.609375 C 10.738281 7.855469 10.734375 7.8125 10.597656 7.683594 C 10.390625 7.488281 10.039062 7.457031 9.792969 7.609375 Z M 9.792969 7.609375 "/>
<path style=" stroke:none;fill-rule:nonzero;fill:rgb(0%,0%,0%);fill-opacity:1;" d="M 11.359375 7.578125 C 11.070312 7.714844 10.921875 8.003906 10.921875 8.433594 C 10.921875 8.875 11.050781 9.183594 11.296875 9.316406 C 11.554688 9.453125 11.921875 9.433594 12.136719 9.273438 C 12.226562 9.199219 12.324219 9.152344 12.335938 9.167969 C 12.382812 9.21875 12.300781 9.597656 12.222656 9.710938 C 12.011719 9.992188 11.476562 10.042969 11.257812 9.796875 C 11.179688 9.710938 11.082031 9.640625 11.046875 9.640625 C 10.921875 9.640625 10.996094 9.839844 11.179688 9.972656 C 11.417969 10.152344 12.046875 10.160156 12.238281 9.980469 C 12.492188 9.753906 12.539062 9.527344 12.539062 8.507812 C 12.539062 7.703125 12.527344 7.554688 12.449219 7.554688 C 12.402344 7.554688 12.359375 7.609375 12.359375 7.675781 C 12.359375 7.832031 12.335938 7.832031 12.132812 7.675781 C 11.910156 7.511719 11.59375 7.46875 11.359375 7.578125 Z M 12.125 7.835938 C 12.277344 7.972656 12.378906 8.378906 12.328125 8.636719 C 12.28125 8.90625 12.042969 9.195312 11.820312 9.242188 C 11.398438 9.335938 11.0625 8.90625 11.117188 8.328125 C 11.140625 8.082031 11.183594 7.992188 11.339844 7.84375 C 11.507812 7.6875 11.574219 7.671875 11.773438 7.695312 C 11.902344 7.714844 12.058594 7.773438 12.125 7.835938 Z M 12.125 7.835938 "/>
<path style=" stroke:none;fill-rule:nonzero;fill:rgb(0%,0%,0%);fill-opacity:1;" d="M 13.078125 7.597656 C 12.785156 7.75 12.648438 8.035156 12.640625 8.46875 C 12.636719 9.089844 12.917969 9.398438 13.488281 9.398438 C 13.804688 9.398438 13.996094 9.292969 14.160156 9.015625 L 14.269531 8.832031 L 14.363281 9.023438 C 14.417969 9.125 14.527344 9.253906 14.609375 9.3125 C 14.933594 9.527344 15.589844 9.378906 15.730469 9.058594 C 15.808594 8.886719 15.898438 8.855469 15.898438 8.996094 C 15.898438 9.054688 15.964844 9.164062 16.050781 9.242188 C 16.171875 9.371094 16.253906 9.398438 16.546875 9.398438 C 16.933594 9.398438 17.179688 9.269531 17.25 9.023438 C 17.292969 8.898438 17.296875 8.898438 17.398438 9.066406 C 17.554688 9.304688 17.742188 9.390625 18.109375 9.398438 C 18.394531 9.398438 18.457031 9.371094 18.636719 9.1875 C 18.75 9.070312 18.839844 8.949219 18.839844 8.910156 C 18.839844 8.78125 18.617188 8.84375 18.550781 8.992188 C 18.511719 9.089844 18.402344 9.167969 18.253906 9.21875 C 17.945312 9.3125 17.671875 9.175781 17.542969 8.863281 C 17.4375 8.597656 17.472656 8.464844 17.652344 8.476562 C 17.730469 8.480469 18.023438 8.488281 18.316406 8.480469 L 18.839844 8.476562 L 18.839844 8.273438 C 18.839844 8.003906 18.636719 7.6875 18.390625 7.578125 C 18.113281 7.460938 17.945312 7.46875 17.710938 7.617188 C 17.4375 7.789062 17.28125 8.082031 17.28125 8.433594 L 17.28125 8.734375 L 17.09375 8.574219 C 16.992188 8.488281 16.878906 8.414062 16.84375 8.414062 C 16.542969 8.414062 16.078125 8.148438 16.078125 7.984375 C 16.078125 7.847656 16.324219 7.675781 16.519531 7.675781 C 16.738281 7.675781 16.980469 7.824219 16.980469 7.960938 C 16.980469 8.007812 17.035156 8.046875 17.101562 8.046875 C 17.238281 8.046875 17.242188 8.039062 17.152344 7.835938 C 16.984375 7.46875 16.300781 7.386719 16.039062 7.707031 C 15.738281 8.0625 15.929688 8.394531 16.519531 8.535156 C 16.984375 8.652344 17.050781 8.695312 17.027344 8.921875 C 16.992188 9.316406 16.355469 9.390625 16.152344 9.027344 C 16.097656 8.929688 16.015625 8.835938 15.964844 8.832031 C 15.90625 8.820312 15.875 8.707031 15.871094 8.476562 C 15.863281 8.292969 15.820312 8.058594 15.773438 7.960938 C 15.503906 7.394531 14.71875 7.359375 14.371094 7.898438 L 14.242188 8.089844 L 14.148438 7.921875 C 13.9375 7.546875 13.453125 7.402344 13.078125 7.597656 Z M 13.871094 7.847656 C 14.035156 8.015625 14.117188 8.433594 14.039062 8.714844 C 13.882812 9.304688 13.261719 9.445312 12.953125 8.953125 C 12.859375 8.792969 12.839844 8.679688 12.859375 8.390625 C 12.875 8.070312 12.898438 8.003906 13.078125 7.84375 C 13.246094 7.6875 13.3125 7.671875 13.519531 7.695312 C 13.648438 7.714844 13.8125 7.78125 13.871094 7.847656 Z M 15.355469 7.769531 C 15.582031 7.886719 15.679688 8.15625 15.648438 8.574219 C 15.613281 9.023438 15.414062 9.242188 15.054688 9.242188 C 14.851562 9.242188 14.777344 9.207031 14.632812 9.039062 C 14.484375 8.867188 14.460938 8.792969 14.460938 8.488281 C 14.464844 8.09375 14.554688 7.886719 14.765625 7.761719 C 14.957031 7.660156 15.148438 7.660156 15.355469 7.769531 Z M 18.324219 7.738281 C 18.472656 7.792969 18.660156 8.082031 18.660156 8.261719 C 18.660156 8.335938 18.5625 8.351562 18.058594 8.351562 C 17.730469 8.351562 17.460938 8.339844 17.460938 8.320312 C 17.460938 8.304688 17.496094 8.191406 17.542969 8.082031 C 17.6875 7.726562 17.976562 7.601562 18.324219 7.738281 Z M 18.324219 7.738281 "/>
</g>
</svg>
