<?xml version="1.0" encoding="UTF-8"?>
<svg xmlns="http://www.w3.org/2000/svg" xmlns:xlink="http://www.w3.org/1999/xlink" width="24px" height="24px" viewBox="0 0 24 24" version="1.1">
<g id="surface1">
<path style=" stroke:none;fill-rule:nonzero;fill:rgb(0%,0%,0%);fill-opacity:1;" d="M 8.875 5.648438 L 8.875 8.40625 L 3.027344 11.082031 L 8.875 13.855469 L 8.875 16.558594 L 0 12.347656 L 0 9.886719 Z M 14.914062 8.144531 C 14.914062 7.441406 14.265625 6.996094 13.75 7.351562 C 13.234375 7.703125 13.234375 8.589844 13.75 8.941406 C 14.265625 9.292969 14.914062 8.851562 14.914062 8.144531 Z M 12.800781 10.3125 C 11.050781 9.351562 11.050781 6.941406 12.800781 5.984375 C 14.550781 5.023438 16.746094 6.230469 16.746094 8.148438 C 16.746094 10.066406 14.550781 11.269531 12.800781 10.3125 Z M 22.167969 15.933594 C 22.167969 15.226562 21.519531 14.785156 21.003906 15.136719 C 20.488281 15.492188 20.488281 16.375 21.003906 16.730469 C 21.519531 17.082031 22.167969 16.636719 22.167969 15.933594 Z M 20.054688 18.097656 C 18.304688 17.140625 18.304688 14.730469 20.054688 13.773438 C 21.800781 12.8125 24 14.019531 24 15.9375 C 24 17.851562 21.800781 19.058594 20.054688 18.097656 Z M 14.679688 18.4375 L 23.792969 5.5625 L 20.675781 5.5625 L 11.414062 18.4375 Z M 14.679688 18.4375 "/>
</g>
</svg>
