<?xml version="1.0" standalone="no"?>
<!DOCTYPE svg PUBLIC "-//W3C//DTD SVG 20010904//EN"
 "http://www.w3.org/TR/2001/REC-SVG-20010904/DTD/svg10.dtd">
<svg version="1.0" xmlns="http://www.w3.org/2000/svg"
 width="400.000000pt" height="277.000000pt" viewBox="0 0 400.000000 277.000000"
 preserveAspectRatio="xMidYMid meet">

<g transform="translate(0.000000,277.000000) scale(0.100000,-0.100000)"
fill="#000000" stroke="none">
<path d="M950 1543 c-8 -3 -25 -15 -37 -26 l-23 -20 0 21 c0 13 -6 22 -15 22
-13 0 -15 -23 -15 -150 0 -127 2 -150 15 -150 12 0 15 18 15 98 0 73 4 106 18
131 29 58 107 68 130 16 7 -15 12 -73 12 -135 0 -91 3 -110 15 -110 12 0 15
19 15 111 0 109 0 111 29 140 34 34 79 39 104 11 14 -15 17 -41 17 -140 0
-102 2 -122 15 -122 11 0 15 12 15 48 0 64 9 71 31 23 41 -92 188 -99 234 -12
70 136 -28 285 -159 241 -40 -13 -86 -62 -86 -91 0 -11 -4 -17 -10 -14 -5 3
-10 19 -10 34 0 71 -85 103 -151 58 -36 -25 -37 -25 -56 -6 -20 20 -77 33
-103 22z m509 -38 c38 -19 54 -63 49 -131 -6 -73 -39 -109 -99 -109 -34 0 -46
6 -70 33 -25 27 -29 41 -29 88 0 108 68 162 149 119z"/>
<path d="M1632 1531 c-39 -25 -42 -25 -42 -6 0 8 -7 15 -15 15 -13 0 -15 -23
-15 -150 0 -127 2 -150 15 -150 12 0 15 18 15 100 0 72 5 110 15 131 26 50 99
65 135 29 18 -18 20 -33 20 -140 0 -100 3 -120 15 -120 13 0 15 21 15 128 0
123 -1 130 -24 151 -34 32 -93 37 -134 12z"/>
<path d="M1893 1536 c-48 -22 -73 -69 -73 -139 0 -72 22 -122 63 -144 43 -22
104 -19 140 7 15 12 31 20 33 17 8 -8 -6 -70 -19 -88 -35 -46 -124 -54 -161
-14 -13 14 -29 25 -35 25 -21 0 -8 -32 22 -54 40 -29 145 -30 177 -1 42 37 50
74 50 240 0 131 -2 155 -15 155 -8 0 -15 -9 -15 -20 0 -25 -4 -25 -38 0 -37
27 -90 34 -129 16z m128 -42 c25 -22 42 -88 34 -130 -8 -44 -48 -91 -85 -99
-70 -15 -126 55 -117 149 4 40 11 55 37 79 28 25 39 28 72 24 22 -3 48 -13 59
-23z"/>
<path d="M2180 1533 c-49 -25 -72 -71 -73 -142 -1 -101 46 -151 141 -151 53 0
85 17 112 62 l18 30 16 -31 c9 -17 27 -38 41 -47 54 -35 163 -11 187 41 13 28
28 33 28 10 0 -9 11 -27 25 -40 20 -21 34 -25 83 -25 64 0 105 21 117 61 7 20
8 20 25 -7 26 -39 57 -53 118 -54 48 0 58 4 88 34 19 19 34 39 34 45 0 21 -37
11 -48 -13 -7 -16 -25 -29 -50 -37 -51 -15 -97 7 -118 58 -18 43 -12 65 18 63
13 -1 62 -2 111 -1 l87 1 0 33 c0 44 -34 95 -75 113 -46 19 -74 18 -113 -6
-46 -28 -72 -76 -72 -133 l0 -49 -31 26 c-17 14 -36 26 -42 26 -50 0 -127 43
-127 70 0 22 41 50 73 50 37 0 77 -24 77 -46 0 -8 9 -14 20 -14 23 0 24 1 9
34 -28 60 -142 73 -186 21 -50 -58 -18 -112 80 -135 78 -19 89 -26 85 -63 -6
-64 -112 -76 -146 -17 -9 16 -23 31 -31 32 -10 2 -15 20 -16 58 -1 30 -8 68
-16 84 -45 92 -176 98 -234 10 l-21 -31 -16 27 c-35 61 -116 85 -178 53z m132
-41 c27 -27 41 -95 28 -141 -26 -96 -130 -119 -181 -39 -16 26 -19 45 -16 92
3 52 7 63 37 89 28 25 39 28 73 24 22 -3 49 -14 59 -25z m247 13 c38 -19 54
-63 49 -131 -6 -73 -39 -109 -99 -109 -34 0 -46 6 -70 33 -25 28 -29 40 -29
90 1 64 16 98 51 118 32 17 64 17 98 -1z m495 5 c25 -9 56 -56 56 -85 0 -12
-16 -15 -100 -15 -55 0 -100 2 -100 5 0 3 6 21 14 39 24 58 72 78 130 56z"/>
</g>
</svg>
